<?xml version="1.0" encoding="UTF-8" standalone="no"?>
<!-- Created with Inkscape (http://www.inkscape.org/) -->

<svg
   version="1.1"
   id="svg182"
   width="138.66667"
   height="114"
   viewBox="0 0 138.66667 114"
   sodipodi:docname="P&amp;T_'LOGO.svg"
   inkscape:version="1.2.2 (732a01da63, 2022-12-09)"
   xmlns:inkscape="http://www.inkscape.org/namespaces/inkscape"
   xmlns:sodipodi="http://sodipodi.sourceforge.net/DTD/sodipodi-0.dtd"
   xmlns="http://www.w3.org/2000/svg"
   xmlns:svg="http://www.w3.org/2000/svg">
  <defs
     id="defs186">
    <linearGradient
       id="linearGradient5249"
       inkscape:swatch="solid">
      <stop
         style="stop-color:#ff0000;stop-opacity:1;"
         offset="0"
         id="stop5247" />
    </linearGradient>
  </defs>
  <sodipodi:namedview
     id="namedview184"
     pagecolor="#ffffff"
     bordercolor="#000000"
     borderopacity="0.25"
     inkscape:showpageshadow="2"
     inkscape:pageopacity="0.0"
     inkscape:pagecheckerboard="0"
     inkscape:deskcolor="#d1d1d1"
     showgrid="false"
     inkscape:zoom="1.2622476"
     inkscape:cx="303.42699"
     inkscape:cy="-31.689503"
     inkscape:window-width="1920"
     inkscape:window-height="1046"
     inkscape:window-x="-11"
     inkscape:window-y="-11"
     inkscape:window-maximized="1"
     inkscape:current-layer="g188" />
  <g
     inkscape:groupmode="layer"
     inkscape:label="Image"
     id="g188">
    <path
       style="fill:#f20a0a;stroke-width:0.396743"
       d="M 75.856748,24.307073 V 9.3983854 l 2.611315,0.2096112 c 1.436223,0.1152862 2.817687,0.4159324 3.06992,0.6681024 0.324978,0.324896 0.499387,4.607895 0.598567,14.699076 L 82.276512,39.21576 H 79.06663 75.856748 Z"
       id="path373" />
    <path
       style="fill:#f20a0a;stroke-width:0.396743"
       d="M 88.532549,24.307073 V 9.3983854 l 2.611315,0.2096112 c 1.436223,0.1152862 2.817687,0.4159324 3.06992,0.6681024 0.324978,0.324896 0.499388,4.607895 0.598567,14.699076 l 0.139962,14.240585 h -3.209882 -3.209882 z"
       id="path375" />
    <path
       style="fill:#f20a0a;stroke-width:0.396743"
       d="M 52.584769,107.46644 51.297383,107.298 V 92.020691 76.743386 l 1.485445,0.245529 c 0.816995,0.135041 1.955007,0.247491 2.528916,0.249889 l 1.04347,0.0044 0.292066,13.240977 c 0.161735,7.332332 0.137272,14.093549 -0.05482,15.151539 -0.320608,1.76583 -0.436788,1.91393 -1.533596,1.95489 -0.65269,0.0244 -1.766033,-0.0315 -2.474095,-0.12413 z"
       id="path377" />
    <path
       style="fill:#f20a0a;stroke-width:0.396743"
       d="m 64.919551,107.35623 c -0.459892,-0.18582 -0.989429,-0.66472 -1.17675,-1.06422 -0.187321,-0.39949 -0.402472,-7.213417 -0.478114,-15.142051 l -0.13753,-14.415698 2.638209,0.21177 c 1.451016,0.116474 2.844583,0.41807 3.096816,0.670214 0.325929,0.325814 0.498761,4.750226 0.597403,15.293254 l 0.138798,14.834811 -1.921332,-0.0251 c -1.056733,-0.0138 -2.297608,-0.17715 -2.7575,-0.36297 z"
       id="path379" />
    <path
       style="fill:#f20a0a;stroke-width:0.396743"
       d="m 16.042811,47.138136 v -2.772832 h 14.656395 14.656395 v 2.772832 2.772831 H 30.699206 16.042811 Z"
       id="path381" />
    <path
       style="fill:#f20a0a;stroke-width:0.396743"
       d="m 105.83651,74.173854 c 4.17948,-0.06411 11.13137,-0.0642 15.44864,-2.04e-4 4.31726,0.064 0.89769,0.116452 -7.59906,0.116564 -8.49675,1.12e-4 -12.02906,-0.05225 -7.84958,-0.11636 z"
       id="path383" />
    <path
       style="fill:#f20a0a;stroke-width:0.396743"
       d="M 98.435518,71.180247 V 68.286282 L 113.389,68.452895 c 8.22442,0.09164 14.9761,0.19071 15.00374,0.220163 0.0276,0.02945 0.17552,1.256762 0.32862,2.727353 l 0.27836,2.673802 h -15.2821 -15.282102 z"
       id="path385" />
    <path
       style="fill:#000000;stroke-width:0.396743"
       d="m 16.022247,59.321197 c 0.153904,-1.360334 0.310619,-2.499582 0.348254,-2.531663 0.03764,-0.03208 6.619243,-0.188836 14.625794,-0.348346 L 45.55366,56.15117 v 2.82168 2.821681 H 30.648041 15.742421 Z"
       id="path1012" />
    <path
       style="fill:#000000;stroke-width:0.396743"
       d="M 15.844751,71.499441 V 68.924669 H 30.699206 45.55366 v 2.574772 2.574772 H 30.699206 15.844751 Z"
       id="path1016" />
    <path
       style="fill:#000000;stroke-width:0.396743"
       d="m 16.093375,60.309085 c 0.465661,-3.479174 -0.114546,-3.159015 6.185482,-3.41315 3.106135,-0.125297 9.613657,-0.318641 14.46116,-0.429651 l 8.813643,-0.201838 v 2.765042 2.765043 H 30.72411 15.89456 Z"
       id="path1018" />
    <path
       style="fill:#000000;stroke-width:0.396743"
       d="M 51.099323,24.361305 V 9.5068509 h 2.574773 2.574772 V 24.361305 39.21576 h -2.574772 -2.574773 z"
       id="path1020" />
    <path
       style="fill:#000000;stroke-width:0.396743"
       d="M 63.379006,23.767127 V 9.1107321 h 2.772831 2.772832 V 23.767127 38.423522 h -2.772832 -2.772831 z"
       id="path1022" />
    <path
       style="fill:#000000;stroke-width:0.396743"
       d="m 53.872155,63.180946 v -8.912672 h 4.535869 c 5.149217,0 8.161891,0.514473 9.103138,1.55454 0.974535,1.076849 1.229024,4.30229 0.480752,6.093155 -0.788218,1.886474 -2.877107,2.876834 -6.890591,3.26689 l -2.871861,0.279106 v 3.315827 3.315827 h -2.178654 -2.178653 z m 9.82405,-1.137731 c 0.436254,-0.436254 0.673098,-1.307657 0.673098,-2.476483 0,-2.099689 -0.939536,-3.123818 -3.266223,-3.560307 -2.068837,-0.388116 -2.873618,0.727478 -2.873618,3.983435 0,1.355678 0.13369,2.600902 0.297089,2.767165 0.529547,0.53883 4.459674,-0.0038 5.169654,-0.71381 z"
       id="path1024" />
    <path
       style="fill:#000000;stroke-width:0.396743"
       d="M 76.054807,91.701499 V 76.847045 h 2.772831 2.772832 v 14.854454 14.854451 h -2.772832 -2.772831 z"
       id="path1026" />
    <path
       style="fill:#000000;stroke-width:0.396743"
       d="M 88.730608,91.701499 V 76.847045 h 2.772832 2.772831 V 91.701499 106.55595 H 91.50344 88.730608 Z"
       id="path1028" />
    <path
       style="fill:#000000;stroke-width:0.396743"
       d="M 98.633578,46.302655 V 43.48658 l 14.557362,0.287858 c 8.00655,0.158321 14.58056,0.311471 14.6089,0.340332 0.0284,0.02886 0.12885,1.166559 0.22334,2.528217 l 0.1718,2.475742 h -14.7807 -14.780702 z"
       id="path1030" />
    <path
       style="fill:#ff0000;stroke-width:0.396743"
       d="M 99.326786,61.366683 C 98.78949,61.053737 98.633578,60.432796 98.633578,58.605897 v -2.357029 h 14.854452 14.85446 v 2.772831 2.772832 l -14.16125,-0.01205 c -8.87946,-0.0076 -14.419796,-0.162636 -14.854454,-0.415802 z"
       id="path1032" />
    <path
       style="fill:#ff0000;stroke-width:0.396743"
       d="m 79.223757,64.369303 v -7.724317 h -1.921484 c -3.331848,0 -5.571178,-1.25397 -4.228814,-2.368033 0.337688,-0.280257 3.633096,-0.534288 8.889127,-0.685232 l 8.352497,-0.239869 -0.0061,0.953359 c -0.01062,1.66843 -0.594167,2.080724 -3.348519,2.365809 -1.441203,0.14917 -2.746596,0.397239 -2.900872,0.551265 -0.154276,0.154025 -0.342067,3.563086 -0.417312,7.57569 l -0.136809,7.295644 h -2.140874 -2.140874 z"
       id="path1103" />
    <path
       style="fill:#ff0000;stroke-width:0.396743"
       d="m 80.172082,49.35025 c -0.118342,-0.308394 -0.157311,-1.065971 -0.0866,-1.683505 0.112411,-0.981682 0.313574,-1.138138 1.600666,-1.244933 1.284574,-0.106587 1.503583,0.0033 1.719272,0.862678 0.438466,1.746987 -0.112713,2.626477 -1.646019,2.626477 -0.817884,0 -1.45907,-0.226497 -1.587322,-0.560717 z"
       id="path1105" />
  </g>
</svg>
